<svg width="31" height="31" viewBox="0 0 31 31" fill="none" xmlns="http://www.w3.org/2000/svg">
<path d="M5.96233 24.5413C5.36731 24.5413 4.87088 24.3424 4.47304 23.9446C4.07521 23.5468 3.87586 23.0499 3.875 22.454V8.54534C3.875 7.95031 4.07435 7.45388 4.47304 7.05605C4.87174 6.65822 5.36774 6.45887 5.96104 6.45801H25.039C25.6331 6.45801 26.1291 6.65735 26.527 7.05605C26.9248 7.45474 27.1241 7.95117 27.125 8.54534V22.4553C27.125 23.0495 26.9257 23.5459 26.527 23.9446C26.1283 24.3433 25.6323 24.5422 25.039 24.5413H5.96233ZM25.8333 8.8928L16.0787 15.2788C15.9874 15.3262 15.8953 15.3662 15.8022 15.3989C15.7084 15.4308 15.6076 15.4467 15.5 15.4467C15.3924 15.4467 15.2916 15.4308 15.1977 15.3989C15.1039 15.3671 15.0117 15.327 14.9213 15.2788L5.16667 8.89151V22.454C5.16667 22.6865 5.24115 22.8772 5.39012 23.0262C5.5391 23.1752 5.72983 23.2497 5.96233 23.2497H25.039C25.2706 23.2497 25.4609 23.1752 25.6099 23.0262C25.7588 22.8772 25.8333 22.6865 25.8333 22.454V8.8928ZM15.5 14.208L25.4355 7.74967H5.5645L15.5 14.208ZM5.16667 9.16534V8.1178V8.16172V7.74967V8.16301V8.09584V9.16534Z" fill="#FFB75E"/>
</svg>
