<svg aria-hidden="true" style="position: absolute; width: 0; height: 0; overflow: hidden;" version="1.1"
  xmlns="http://www.w3.org/2000/svg" xmlns:xlink="http://www.w3.org/1999/xlink">
  <defs>
    <symbol id="icon-back" viewBox="0 0 32 32">
      <path stroke-linejoin="round" stroke-linecap="round" stroke-miterlimit="4" stroke-width="1.3333"
        d="M20 24l-8-8 8-8"></path>
    </symbol>
    <symbol id="icon-burger" viewBox="0 0 32 32">
      <path stroke-linejoin="miter" stroke-linecap="square" stroke-miterlimit="4" stroke-width="1.3333"
        d="M8 10.667h14.667M8 21.333h14.667M8 16h14.667"></path>
    </symbol>
    <symbol id="icon-close" viewBox="0 0 32 32">
      <path stroke-linejoin="round" stroke-linecap="square" stroke-miterlimit="4" stroke-width="1.3333"
        d="M10.667 10.667l5.333 5.333M16 16l-5.333 5.333M16 16l5.333 5.333M16 16l5.333-5.333"></path>
    </symbol>
    <symbol id="icon-envelope" viewBox="0 0 32 32">
      <path fill="#e3e3e3" style="fill: var(--color1, #e3e3e3)"
        d="M26.204 1.333h-22.957c-0.507 0-0.994 0.202-1.353 0.56s-0.56 0.846-0.56 1.353v14.029c0 0.507 0.202 0.994 0.561 1.352s0.845 0.56 1.352 0.56h22.957c0.507-0 0.993-0.202 1.352-0.56s0.56-0.845 0.56-1.352v-14.029c0-0.507-0.201-0.994-0.56-1.352s-0.845-0.561-1.352-0.561z">
      </path>
      <path fill="#fff" style="fill: var(--color2, #fff)"
        d="M3.247 1.333c-0.507 0-0.994 0.202-1.353 0.56s-0.56 0.846-0.56 1.353v14.029c0 0.507 0.202 0.994 0.561 1.352s0.845 0.56 1.352 0.56h1.704l17.855-17.855h-19.559z">
      </path>
      <path fill="none" stroke="#191919" style="stroke: var(--color3, #191919)" stroke-linejoin="round"
        stroke-linecap="round" stroke-miterlimit="4" stroke-width="1.3333"
        d="M12.813 19.188h-9.568c-0.507-0-0.993-0.202-1.352-0.56s-0.56-0.845-0.56-1.352v-14.029c0-0.507 0.202-0.994 0.56-1.353s0.846-0.56 1.353-0.56h22.957c0.507 0 0.994 0.202 1.352 0.561s0.56 0.845 0.56 1.352v9.565">
      </path>
      <path fill="none" stroke="#191919" style="stroke: var(--color3, #191919)" stroke-linejoin="round"
        stroke-linecap="round" stroke-miterlimit="4" stroke-width="1.3333"
        d="M27.563 1.902l-12.84 10.271-12.837-10.271"></path>
      <path fill="#78eb7b" style="fill: var(--color4, #78eb7b)"
        d="M23.013 30.667c1.017 0.019 2.027-0.165 2.972-0.541s1.806-0.937 2.531-1.649c0.726-0.712 1.302-1.562 1.696-2.5s0.596-1.945 0.596-2.962-0.203-2.024-0.596-2.962c-0.394-0.938-0.97-1.788-1.696-2.5s-1.586-1.273-2.531-1.649c-0.945-0.376-1.955-0.56-2.972-0.541-2.005 0.037-3.915 0.86-5.319 2.291s-2.191 3.356-2.191 5.361c0 2.005 0.787 3.93 2.191 5.361s3.314 2.254 5.319 2.291z">
      </path>
      <path fill="#c9f7ca" style="fill: var(--color5, #c9f7ca)"
        d="M23.015 15.363c-1.557-0.001-3.078 0.474-4.358 1.361s-2.259 2.143-2.806 3.601c-0.547 1.458-0.635 3.048-0.254 4.558s1.215 2.867 2.389 3.89l10.787-10.787c-0.716-0.824-1.601-1.485-2.594-1.937s-2.073-0.687-3.164-0.687z">
      </path>
      <path fill="none" stroke="#191919" style="stroke: var(--color3, #191919)" stroke-linejoin="round"
        stroke-linecap="round" stroke-miterlimit="4" stroke-width="1.3333"
        d="M23.013 19.189v7.653M26.84 23.014h-7.652M23.013 30.667c1.017 0.019 2.027-0.165 2.972-0.541s1.806-0.937 2.531-1.649c0.726-0.712 1.302-1.562 1.696-2.5s0.596-1.945 0.596-2.962-0.203-2.024-0.596-2.962c-0.394-0.938-0.97-1.788-1.696-2.5s-1.586-1.273-2.531-1.649c-0.945-0.376-1.955-0.56-2.972-0.541-2.005 0.037-3.915 0.86-5.319 2.291s-2.191 3.356-2.191 5.361c0 2.005 0.787 3.93 2.191 5.361s3.314 2.254 5.319 2.291z">
      </path>
    </symbol>
    <symbol id="icon-faq" viewBox="0 0 55 32">
      <path stroke-linejoin="round" stroke-linecap="square" stroke-miterlimit="4" stroke-width="4.5714"
        d="M3.232 3.232l22.857 22.857 22.857-22.857"></path>
    </symbol>
    <symbol id="icon-feature-1" viewBox="0 0 32 32">
      <path fill="#ffef5e" style="fill: var(--color6, #ffef5e)"
        d="M14.087 18.551c0-0.338-0.134-0.663-0.373-0.902s-0.563-0.374-0.901-0.374h-10.203c-0.338 0-0.663 0.134-0.902 0.374s-0.374 0.564-0.374 0.902v10.203c-0 0.168 0.033 0.334 0.097 0.489s0.158 0.296 0.277 0.414 0.259 0.213 0.414 0.277c0.155 0.064 0.321 0.097 0.489 0.097h10.203c0.338-0 0.662-0.135 0.901-0.374s0.373-0.564 0.373-0.902v-10.203z">
      </path>
      <path fill="#fff9bf" style="fill: var(--color7, #fff9bf)"
        d="M12.812 17.276h-10.203c-0.338 0-0.663 0.134-0.902 0.373s-0.374 0.563-0.374 0.901v2.551c0-0.167 0.033-0.333 0.097-0.488s0.158-0.295 0.277-0.414c0.119-0.118 0.259-0.212 0.414-0.276s0.321-0.097 0.488-0.097h10.203c0.338 0 0.662 0.135 0.901 0.374s0.373 0.563 0.374 0.901v-2.551c0-0.338-0.134-0.663-0.373-0.902s-0.563-0.373-0.901-0.373z">
      </path>
      <path fill="#ff808c" style="fill: var(--color8, #ff808c)"
        d="M30.667 18.551c0-0.338-0.134-0.663-0.374-0.902s-0.564-0.374-0.902-0.374h-10.203c-0.338 0-0.662 0.135-0.901 0.374s-0.373 0.564-0.373 0.902v10.203c0 0.338 0.134 0.663 0.373 0.902s0.563 0.374 0.901 0.374h10.203c0.168 0 0.334-0.033 0.489-0.097s0.296-0.158 0.414-0.277 0.212-0.259 0.277-0.414c0.064-0.155 0.097-0.321 0.097-0.489v-10.203z">
      </path>
      <path fill="#ffbfc5" style="fill: var(--color9, #ffbfc5)"
        d="M29.391 17.276h-10.203c-0.338 0-0.662 0.135-0.901 0.374s-0.373 0.563-0.374 0.901v2.551c0-0.338 0.135-0.662 0.374-0.901s0.563-0.373 0.901-0.374h10.203c0.167-0 0.333 0.033 0.488 0.097s0.295 0.158 0.414 0.276c0.118 0.118 0.212 0.259 0.277 0.414s0.097 0.321 0.097 0.488v-2.551c0-0.338-0.134-0.663-0.374-0.902s-0.564-0.372-0.902-0.372z">
      </path>
      <path fill="#78eb7b" style="fill: var(--color4, #78eb7b)"
        d="M23.014 3.247c0-0.338-0.134-0.663-0.373-0.902s-0.563-0.374-0.901-0.374h-10.203c-0.338 0-0.663 0.134-0.902 0.374s-0.374 0.564-0.374 0.902v10.203c-0 0.168 0.033 0.334 0.097 0.488s0.158 0.296 0.277 0.414c0.119 0.119 0.259 0.213 0.414 0.277s0.321 0.097 0.488 0.097h10.203c0.338 0 0.663-0.134 0.902-0.374s0.374-0.564 0.374-0.902l-0.001-10.203z">
      </path>
      <path fill="#c9f7ca" style="fill: var(--color5, #c9f7ca)"
        d="M21.739 1.971h-10.203c-0.338 0-0.663 0.134-0.902 0.374s-0.374 0.564-0.374 0.902v2.551c0-0.338 0.134-0.663 0.374-0.902s0.564-0.374 0.902-0.374h10.203c0.338 0 0.663 0.134 0.902 0.374s0.374 0.564 0.374 0.902v-2.551c0-0.338-0.134-0.663-0.374-0.902s-0.564-0.374-0.902-0.374z">
      </path>
      <path fill="none" stroke="#090432" style="stroke: var(--color10, #090432)" stroke-linejoin="round"
        stroke-linecap="round" stroke-miterlimit="4" stroke-width="1.3333"
        d="M14.087 18.551c0-0.338-0.134-0.663-0.373-0.902s-0.563-0.374-0.901-0.374h-10.203c-0.338 0-0.663 0.134-0.902 0.374s-0.374 0.564-0.374 0.902v10.203c-0 0.168 0.033 0.334 0.097 0.488s0.158 0.296 0.277 0.414c0.119 0.119 0.259 0.213 0.414 0.277s0.321 0.097 0.489 0.097h10.203c0.338-0 0.662-0.135 0.901-0.374s0.373-0.564 0.373-0.902v-10.203zM30.667 18.551c0-0.338-0.134-0.663-0.374-0.902s-0.564-0.374-0.902-0.374h-10.203c-0.338 0-0.662 0.135-0.901 0.374s-0.373 0.564-0.373 0.902v10.203c0 0.338 0.134 0.663 0.373 0.902s0.563 0.374 0.901 0.374h10.203c0.168 0 0.334-0.033 0.489-0.097s0.296-0.158 0.414-0.277c0.119-0.118 0.212-0.259 0.277-0.414s0.097-0.321 0.097-0.488v-10.203zM23.013 3.247c0-0.338-0.134-0.663-0.373-0.902s-0.563-0.374-0.901-0.374h-10.203c-0.338 0-0.663 0.134-0.902 0.374s-0.374 0.564-0.374 0.902v10.203c-0 0.168 0.033 0.334 0.097 0.488s0.158 0.296 0.277 0.414c0.119 0.119 0.259 0.213 0.414 0.277s0.321 0.097 0.489 0.097h10.203c0.338 0 0.663-0.134 0.902-0.374s0.374-0.564 0.374-0.902l-0.001-10.203z">
      </path>
    </symbol>
    <symbol id="icon-feature-2" viewBox="0 0 32 32">
      <path fill="#ffef5e" style="fill: var(--color6, #ffef5e)"
        d="M5.798 24.927l-2.611-14.247c0 0 1.335 6.596 6.436 6.596s6.376-8.928 6.376-8.928 1.276 8.928 6.377 8.928c5.101 0 6.436-6.496 6.436-6.496l-2.611 14.147h-20.404z">
      </path>
      <path fill="#fff9bf" style="fill: var(--color7, #fff9bf)"
        d="M16.001 8.348c0 0-1.276 8.928-6.377 8.928s-6.436-6.596-6.436-6.596l2.611 14.247h10.201l0.001-16.579z"></path>
      <path fill="#ff808c" style="fill: var(--color8, #ff808c)"
        d="M16 8.348c0.676 0 1.325-0.268 1.804-0.747s0.747-1.127 0.748-1.803c0-0.676-0.268-1.325-0.747-1.804s-1.127-0.747-1.803-0.748c-0.676 0-1.325 0.269-1.804 0.747s-0.747 1.127-0.747 1.804c0 0.676 0.269 1.325 0.747 1.804s1.127 0.747 1.804 0.747z">
      </path>
      <path fill="#ffbfc5" style="fill: var(--color9, #ffbfc5)"
        d="M14.196 7.6c-0.458-0.482-0.71-1.124-0.701-1.79s0.277-1.301 0.747-1.771c0.47-0.47 1.106-0.738 1.771-0.747s1.307 0.243 1.789 0.701l-3.607 3.605z">
      </path>
      <path fill="#ff808c" style="fill: var(--color8, #ff808c)"
        d="M3.247 10.685c0.255 0.007 0.51-0.038 0.748-0.131s0.455-0.233 0.638-0.411 0.329-0.391 0.428-0.627c0.099-0.235 0.151-0.488 0.151-0.744s-0.051-0.508-0.151-0.744-0.245-0.449-0.428-0.627c-0.183-0.178-0.4-0.318-0.638-0.411s-0.492-0.138-0.748-0.131c-0.507 0-0.994 0.202-1.353 0.56s-0.56 0.845-0.56 1.353c0 0.507 0.202 0.994 0.56 1.353s0.845 0.56 1.353 0.56zM28.755 10.793c0.507 0 0.994-0.202 1.353-0.56s0.56-0.846 0.56-1.353c0-0.507-0.202-0.994-0.56-1.353s-0.845-0.56-1.353-0.56-0.994 0.202-1.353 0.56c-0.359 0.359-0.56 0.845-0.56 1.353s0.202 0.994 0.56 1.353c0.359 0.359 0.845 0.56 1.353 0.56z">
      </path>
      <path fill="none" stroke="#090432" style="stroke: var(--color10, #090432)" stroke-linejoin="round"
        stroke-linecap="round" stroke-miterlimit="4" stroke-width="1.3333"
        d="M3.247 10.685c0.255 0.007 0.51-0.038 0.748-0.131s0.455-0.233 0.638-0.411 0.329-0.391 0.428-0.627c0.099-0.235 0.151-0.488 0.151-0.744s-0.051-0.508-0.151-0.744-0.245-0.449-0.428-0.627c-0.183-0.178-0.4-0.318-0.638-0.411s-0.492-0.138-0.748-0.131c-0.507 0-0.994 0.202-1.353 0.56s-0.56 0.845-0.56 1.353c0 0.507 0.202 0.994 0.56 1.353s0.845 0.56 1.353 0.56M28.755 10.793c0.507 0 0.994-0.202 1.353-0.56s0.56-0.846 0.56-1.353c0-0.507-0.202-0.994-0.56-1.353s-0.845-0.56-1.353-0.56-0.994 0.202-1.353 0.56c-0.359 0.359-0.56 0.845-0.56 1.353s0.202 0.994 0.56 1.353c0.359 0.359 0.845 0.56 1.353 0.56z">
      </path>
      <path fill="none" stroke="#090432" style="stroke: var(--color10, #090432)" stroke-linejoin="round"
        stroke-linecap="round" stroke-miterlimit="4" stroke-width="1.3333"
        d="M5.8 28.754h20.404M5.798 24.927l-2.611-14.247c0 0 1.335 6.596 6.436 6.596s6.376-8.928 6.376-8.928 1.276 8.928 6.377 8.928c5.101 0 6.436-6.496 6.436-6.496l-2.611 14.147h-20.404z">
      </path>
      <path fill="none" stroke="#090432" style="stroke: var(--color10, #090432)" stroke-linejoin="round"
        stroke-linecap="round" stroke-miterlimit="4" stroke-width="1.3333"
        d="M16 8.348c0.676 0 1.325-0.268 1.804-0.747s0.747-1.127 0.748-1.803c0-0.676-0.268-1.325-0.747-1.804s-1.127-0.747-1.803-0.748c-0.676 0-1.325 0.269-1.804 0.747s-0.747 1.127-0.747 1.804c0 0.676 0.269 1.325 0.747 1.804s1.127 0.747 1.804 0.747">
      </path>
    </symbol>
    <symbol id="icon-feature-3" viewBox="0 0 32 32">
      <path fill="none" stroke="#090432" style="stroke: var(--color10, #090432)" stroke-linejoin="round"
        stroke-linecap="round" stroke-miterlimit="4" stroke-width="1.3333" d="M30.667 2.349v28.317"></path>
      <path fill="#ff808c" style="fill: var(--color8, #ff808c)"
        d="M30.307 1.766c-0.109-0.053-0.231-0.074-0.351-0.060s-0.234 0.061-0.329 0.137c-6.593 5.377-6.943-2.691-13.627 0.092-6.685-2.783-7.035 5.285-13.627-0.093-0.095-0.077-0.209-0.125-0.33-0.139s-0.244 0.007-0.353 0.061c-0.109 0.054-0.201 0.138-0.264 0.242s-0.095 0.225-0.092 0.347c0.051 3.583 0.979 12.839 9.175 12.839 1.8 0.016 3.587-0.328 5.253-1.012 0.076-0.033 0.157-0.050 0.239-0.050s0.164 0.017 0.239 0.050c1.667 0.684 3.451 1.027 5.252 1.012 8.196 0 9.124-9.256 9.173-12.839 0.002-0.122-0.030-0.242-0.094-0.346s-0.155-0.188-0.265-0.241zM13.427 8.913c-0.232 1.313-2.128 2.073-4.228 1.7s-3.612-1.747-3.377-3.063c0.235-1.316 2.128-2.067 4.227-1.693 2.099 0.376 3.612 1.741 3.379 3.056zM22.8 10.613c-2.1 0.373-3.993-0.383-4.227-1.697-0.236-1.316 1.275-2.68 3.377-3.061s3.992 0.383 4.227 1.697c0.235 1.315-1.277 2.687-3.377 3.061z">
      </path>
      <path fill="#ffbfc5" style="fill: var(--color9, #ffbfc5)"
        d="M15.692 1.813c-6.391-2.411-6.833 5.324-13.319 0.031-0.094-0.077-0.209-0.125-0.33-0.139s-0.244 0.007-0.353 0.061c-0.109 0.054-0.201 0.137-0.264 0.242s-0.095 0.224-0.092 0.346c0.049 3.583 0.977 12.839 9.173 12.839 1.776 0.014 3.537-0.32 5.184-0.983l0.001-12.396zM9.199 10.613c-2.099-0.376-3.612-1.744-3.377-3.061s2.128-2.068 4.227-1.693c2.099 0.375 3.612 1.741 3.379 3.060-0.233 1.32-2.128 2.071-4.228 1.695z">
      </path>
      <path fill="none" stroke="#090432" style="stroke: var(--color10, #090432)" stroke-linejoin="round"
        stroke-linecap="round" stroke-miterlimit="4" stroke-width="1.3333"
        d="M29.956 1.706c0.12-0.014 0.242 0.007 0.351 0.060s0.201 0.137 0.265 0.241 0.096 0.224 0.094 0.346c-0.049 3.583-0.977 12.839-9.173 12.839-1.801 0.015-3.585-0.328-5.252-1.012-0.075-0.033-0.157-0.050-0.239-0.050s-0.164 0.017-0.239 0.050c-1.667 0.684-3.453 1.028-5.253 1.012-8.196 0-9.124-9.256-9.175-12.839-0.003-0.122 0.029-0.242 0.092-0.347s0.155-0.188 0.264-0.242c0.109-0.054 0.232-0.075 0.353-0.061s0.236 0.062 0.33 0.139c6.592 5.379 6.941-2.689 13.627 0.093 6.684-2.783 7.033 5.285 13.627-0.092 0.094-0.076 0.208-0.123 0.329-0.137z">
      </path>
    </symbol>
    <symbol id="icon-feature-4" viewBox="0 0 32 32">
      <path fill="#c2f3ff" style="fill: var(--color11, #c2f3ff)"
        d="M15.985 24.511c2.257 0 4.422-0.897 6.018-2.493s2.493-3.761 2.493-6.018-0.897-4.422-2.493-6.018c-1.596-1.596-3.761-2.493-6.018-2.493s-4.422 0.897-6.018 2.493-2.493 3.761-2.493 6.018c0 2.257 0.897 4.422 2.493 6.018s3.761 2.493 6.018 2.493z">
      </path>
      <path fill="none" stroke="#090432" style="stroke: var(--color10, #090432)" stroke-linejoin="round"
        stroke-linecap="round" stroke-miterlimit="4" stroke-width="1.3333" d="M23.281 8.712l2.576-2.519"></path>
      <path fill="#ffef5e" style="fill: var(--color6, #ffef5e)"
        d="M27.552 6.88c0.324 0.008 0.646-0.050 0.948-0.168s0.576-0.297 0.808-0.523c0.232-0.227 0.416-0.497 0.542-0.796s0.191-0.62 0.191-0.944c0-0.324-0.065-0.645-0.191-0.944s-0.31-0.569-0.542-0.796c-0.232-0.227-0.507-0.404-0.808-0.523s-0.624-0.176-0.948-0.168c-0.645 0-1.264 0.256-1.72 0.712s-0.712 1.075-0.712 1.72 0.256 1.264 0.712 1.72c0.456 0.456 1.075 0.711 1.72 0.711z">
      </path>
      <path fill="#fff9bf" style="fill: var(--color7, #fff9bf)"
        d="M27.551 6.88c-0.324 0.008-0.646-0.050-0.948-0.168s-0.576-0.297-0.808-0.523-0.416-0.497-0.542-0.796c-0.126-0.299-0.191-0.62-0.191-0.944s0.065-0.645 0.191-0.944c0.126-0.299 0.31-0.569 0.542-0.796s0.507-0.404 0.808-0.523c0.302-0.119 0.624-0.176 0.948-0.168v4.863z">
      </path>
      <path fill="none" stroke="#090432" style="stroke: var(--color10, #090432)" stroke-linejoin="round"
        stroke-linecap="round" stroke-miterlimit="4" stroke-width="1.3333" d="M23.25 23.27l2.569 2.587"></path>
      <path fill="#ffef5e" style="fill: var(--color6, #ffef5e)"
        d="M27.562 29.983c0.645 0 1.264-0.256 1.72-0.712s0.712-1.075 0.712-1.72-0.256-1.264-0.712-1.72c-0.456-0.456-1.075-0.712-1.72-0.712s-1.264 0.256-1.72 0.712c-0.456 0.456-0.712 1.075-0.712 1.72s0.256 1.264 0.712 1.72c0.456 0.456 1.075 0.712 1.72 0.712z">
      </path>
      <path fill="#fff9bf" style="fill: var(--color7, #fff9bf)"
        d="M27.562 29.983c-0.645 0-1.264-0.256-1.72-0.712s-0.712-1.075-0.712-1.72 0.256-1.264 0.712-1.72c0.456-0.456 1.075-0.712 1.72-0.712v4.864z">
      </path>
      <path fill="none" stroke="#090432" style="stroke: var(--color10, #090432)" stroke-linejoin="round"
        stroke-linecap="round" stroke-miterlimit="4" stroke-width="1.3333" d="M8.694 8.712l-2.551-2.519"></path>
      <path fill="#ffef5e" style="fill: var(--color6, #ffef5e)"
        d="M4.45 6.88c0.324 0.008 0.646-0.050 0.948-0.168s0.576-0.297 0.808-0.523c0.232-0.227 0.416-0.497 0.542-0.796s0.191-0.62 0.191-0.944c0-0.324-0.065-0.645-0.191-0.944s-0.31-0.569-0.542-0.796c-0.232-0.227-0.507-0.404-0.808-0.523s-0.624-0.176-0.948-0.168c-0.645 0-1.264 0.256-1.72 0.712s-0.712 1.075-0.712 1.72c0 0.645 0.256 1.264 0.712 1.72s1.075 0.711 1.72 0.711z">
      </path>
      <path fill="#fff9bf" style="fill: var(--color7, #fff9bf)"
        d="M4.45 2.018c-0.319 0-0.636 0.063-0.931 0.185s-0.563 0.301-0.789 0.527c-0.226 0.226-0.405 0.494-0.527 0.789s-0.185 0.611-0.185 0.931c0 0.319 0.063 0.636 0.185 0.931s0.301 0.563 0.527 0.789c0.226 0.226 0.494 0.405 0.789 0.527s0.611 0.185 0.931 0.185v-4.864z">
      </path>
      <path fill="none" stroke="#090432" style="stroke: var(--color10, #090432)" stroke-linejoin="round"
        stroke-linecap="round" stroke-miterlimit="4" stroke-width="1.3333" d="M8.753 23.27l-2.571 2.587"></path>
      <path fill="#ffef5e" style="fill: var(--color6, #ffef5e)"
        d="M4.437 29.983c0.645 0 1.264-0.256 1.72-0.712s0.712-1.075 0.712-1.72-0.256-1.264-0.712-1.72c-0.456-0.456-1.075-0.712-1.72-0.712s-1.264 0.256-1.72 0.712c-0.456 0.456-0.712 1.075-0.712 1.72s0.256 1.264 0.712 1.72c0.456 0.456 1.075 0.712 1.72 0.712z">
      </path>
      <path fill="#fff9bf" style="fill: var(--color7, #fff9bf)"
        d="M4.438 25.12c-0.635 0.015-1.239 0.278-1.683 0.732s-0.692 1.064-0.692 1.699c0 0.635 0.248 1.245 0.692 1.699s1.048 0.717 1.683 0.732v-4.863z">
      </path>
      <path fill="none" stroke="#090432" style="stroke: var(--color10, #090432)" stroke-linejoin="round"
        stroke-linecap="round" stroke-miterlimit="4" stroke-width="1.3333" d="M22.068 15.393h3.053"></path>
      <path fill="#ffef5e" style="fill: var(--color6, #ffef5e)"
        d="M27.552 17.824c0.645 0 1.264-0.256 1.72-0.712s0.712-1.075 0.712-1.72-0.256-1.264-0.712-1.72c-0.456-0.456-1.075-0.712-1.72-0.712s-1.264 0.256-1.72 0.712c-0.456 0.456-0.712 1.075-0.712 1.72s0.256 1.264 0.712 1.72c0.456 0.456 1.075 0.712 1.72 0.712z">
      </path>
      <path fill="#fff9bf" style="fill: var(--color7, #fff9bf)"
        d="M27.552 17.824c-0.645 0-1.264-0.256-1.72-0.712s-0.712-1.075-0.712-1.72 0.256-1.264 0.712-1.72c0.456-0.456 1.075-0.712 1.72-0.712v4.864z">
      </path>
      <path fill="none" stroke="#090432" style="stroke: var(--color10, #090432)" stroke-linejoin="round"
        stroke-linecap="round" stroke-miterlimit="4" stroke-width="1.3333" d="M9.907 15.393h-3.027"></path>
      <path fill="#ffef5e" style="fill: var(--color6, #ffef5e)"
        d="M4.45 17.824c0.645 0 1.264-0.256 1.72-0.712s0.712-1.075 0.712-1.72-0.256-1.264-0.712-1.72c-0.456-0.456-1.075-0.712-1.72-0.712s-1.264 0.256-1.72 0.712c-0.456 0.456-0.712 1.075-0.712 1.72s0.256 1.264 0.712 1.72c0.456 0.456 1.075 0.712 1.72 0.712z">
      </path>
      <path fill="#fff9bf" style="fill: var(--color7, #fff9bf)"
        d="M4.45 12.96c-0.645 0-1.264 0.256-1.72 0.712s-0.712 1.075-0.712 1.72c0 0.645 0.256 1.264 0.712 1.72s1.075 0.712 1.72 0.712v-4.864z">
      </path>
      <path fill="none" stroke="#090432" style="stroke: var(--color10, #090432)" stroke-linejoin="round"
        stroke-linecap="round" stroke-miterlimit="4" stroke-width="1.3333"
        d="M12.364 13.568c0-0.658 0.178-1.303 0.515-1.868s0.82-1.028 1.399-1.34c0.579-0.313 1.231-0.463 1.888-0.435s1.294 0.233 1.845 0.593c0.55 0.36 0.993 0.863 1.281 1.454s0.411 1.249 0.355 1.905c-0.055 0.655-0.287 1.283-0.67 1.818s-0.904 0.956-1.506 1.219c-0.434 0.189-0.803 0.5-1.062 0.896s-0.397 0.859-0.396 1.332v0.507M27.552 6.88c0.324 0.008 0.646-0.050 0.948-0.168s0.576-0.297 0.808-0.523c0.232-0.227 0.416-0.497 0.542-0.796s0.191-0.62 0.191-0.944c0-0.324-0.065-0.645-0.191-0.944s-0.31-0.569-0.542-0.796c-0.232-0.227-0.507-0.404-0.808-0.523s-0.624-0.176-0.948-0.168c-0.645 0-1.264 0.256-1.72 0.712s-0.712 1.075-0.712 1.72c0 0.645 0.256 1.264 0.712 1.72s1.075 0.711 1.72 0.711zM27.563 29.983c0.645 0 1.264-0.256 1.72-0.712s0.712-1.075 0.712-1.72-0.256-1.264-0.712-1.72c-0.456-0.456-1.075-0.712-1.72-0.712s-1.264 0.256-1.72 0.712c-0.456 0.456-0.712 1.075-0.712 1.72s0.256 1.264 0.712 1.72c0.456 0.456 1.075 0.712 1.72 0.712zM4.451 6.88c0.324 0.008 0.646-0.050 0.948-0.168s0.576-0.297 0.808-0.523c0.232-0.227 0.416-0.497 0.542-0.796s0.191-0.62 0.191-0.944c0-0.324-0.065-0.645-0.191-0.944s-0.31-0.569-0.542-0.796c-0.232-0.227-0.507-0.404-0.808-0.523s-0.624-0.176-0.948-0.168c-0.645 0-1.264 0.256-1.72 0.712s-0.712 1.075-0.712 1.72c0 0.645 0.256 1.264 0.712 1.72s1.075 0.711 1.72 0.711zM4.437 29.983c0.645 0 1.264-0.256 1.72-0.712s0.712-1.075 0.712-1.72c0-0.645-0.256-1.264-0.712-1.72s-1.075-0.712-1.72-0.712-1.264 0.256-1.72 0.712c-0.456 0.456-0.712 1.075-0.712 1.72s0.256 1.264 0.712 1.72c0.456 0.456 1.075 0.712 1.72 0.712zM27.552 17.824c0.645 0 1.264-0.256 1.72-0.712s0.712-1.075 0.712-1.72-0.256-1.264-0.712-1.72c-0.456-0.456-1.075-0.712-1.72-0.712s-1.264 0.256-1.72 0.712c-0.456 0.456-0.712 1.075-0.712 1.72s0.256 1.264 0.712 1.72c0.456 0.456 1.075 0.712 1.72 0.712zM4.451 17.824c0.645 0 1.264-0.256 1.72-0.712s0.712-1.075 0.712-1.72c0-0.645-0.256-1.264-0.712-1.72s-1.075-0.712-1.72-0.712-1.264 0.256-1.72 0.712c-0.456 0.456-0.712 1.075-0.712 1.72s0.256 1.264 0.712 1.72c0.456 0.456 1.075 0.712 1.72 0.712z">
      </path>
      <path fill="none" stroke="#090432" style="stroke: var(--color10, #090432)" stroke-linejoin="miter"
        stroke-linecap="butt" stroke-miterlimit="4" stroke-width="1.3333"
        d="M15.873 22.7c0.040 0.014 0.083 0.019 0.126 0.015 0.043 0.004 0.085-0.001 0.126-0.015s0.078-0.035 0.109-0.064c0.032-0.029 0.057-0.064 0.074-0.103s0.026-0.081 0.026-0.124-0.009-0.085-0.026-0.124c-0.017-0.039-0.042-0.074-0.074-0.103s-0.069-0.051-0.109-0.064c-0.040-0.014-0.083-0.018-0.126-0.014-0.042-0.004-0.085 0.001-0.126 0.014s-0.078 0.035-0.109 0.064c-0.032 0.029-0.057 0.064-0.074 0.103s-0.026 0.081-0.026 0.124 0.009 0.085 0.026 0.124c0.017 0.039 0.042 0.074 0.074 0.103s0.069 0.051 0.109 0.064z">
      </path>
    </symbol>
    <symbol id="icon-feature-5" viewBox="0 0 32 32">
      <path fill="#fff" style="fill: var(--color2, #fff)"
        d="M19.827 1.333h-16.58c-1.057 0-1.913 0.856-1.913 1.913v22.956c0 1.056 0.856 1.913 1.913 1.913h16.58c1.056 0 1.912-0.856 1.912-1.913v-22.956c0-1.057-0.856-1.913-1.912-1.913z">
      </path>
      <path fill="#66e1ff" style="fill: var(--color12, #66e1ff)"
        d="M18.551 3.884h-14.031c-0.169 0.001-0.33 0.068-0.45 0.187s-0.187 0.281-0.187 0.45v17.856c0 0.352 0.285 0.637 0.637 0.637h14.029c0.169-0.001 0.331-0.068 0.45-0.187s0.187-0.281 0.187-0.45v-17.857c-0.001-0.169-0.068-0.33-0.187-0.45s-0.281-0.187-0.45-0.187z">
      </path>
      <path fill="#c2f3ff" style="fill: var(--color11, #c2f3ff)"
        d="M19.187 5.797v-1.277c-0.001-0.169-0.068-0.33-0.187-0.449s-0.28-0.187-0.449-0.188h-14.031c-0.169 0.001-0.33 0.068-0.45 0.187s-0.187 0.281-0.187 0.45v16.58l15.304-15.303z">
      </path>
      <path fill="#ffdda1" style="fill: var(--color13, #ffdda1)"
        d="M21.738 20.464l-1.595-1.595c-0.254-0.253-0.598-0.395-0.956-0.395s-0.702 0.142-0.956 0.395c-0.207 0.276-0.319 0.612-0.319 0.957s0.112 0.681 0.319 0.957l3.507 4.145v1.275c0 1.276 2.551 4.464 2.551 4.464h6.377l-3.827-5.101v-5.813c0-2.161-2.653-4.209-5.101-6.303v7.015z">
      </path>
      <path fill="none" stroke="#090432" style="stroke: var(--color10, #090432)" stroke-linejoin="round"
        stroke-linecap="round" stroke-miterlimit="4" stroke-width="1.3333"
        d="M10.26 25.565h2.551M18.551 28.123h-15.304c-0.507-0.004-0.993-0.208-1.351-0.567s-0.56-0.846-0.562-1.353v-22.956c0.002-0.507 0.204-0.993 0.562-1.351s0.844-0.561 1.351-0.562h16.58c0.507 0 0.994 0.202 1.352 0.561s0.56 0.845 0.56 1.352v17.217">
      </path>
      <path fill="none" stroke="#090432" style="stroke: var(--color10, #090432)" stroke-linejoin="round"
        stroke-linecap="round" stroke-miterlimit="4" stroke-width="1.3333"
        d="M20.119 23.013h-15.6c-0.168-0.001-0.33-0.068-0.449-0.187s-0.186-0.28-0.187-0.449v-17.857c0.001-0.169 0.068-0.33 0.187-0.45s0.281-0.187 0.45-0.187h14.029c0.169 0.001 0.331 0.068 0.45 0.187s0.187 0.281 0.187 0.45v13.949M30.665 30.667l-3.827-5.101v-5.813c0-2.161-2.653-4.209-5.101-6.303">
      </path>
      <path fill="none" stroke="#090432" style="stroke: var(--color10, #090432)" stroke-linejoin="round"
        stroke-linecap="round" stroke-miterlimit="4" stroke-width="1.3333"
        d="M23.012 21.739l-2.869-2.869c-0.254-0.254-0.597-0.396-0.956-0.396s-0.702 0.142-0.956 0.396c-0.207 0.276-0.32 0.612-0.32 0.957s0.112 0.681 0.32 0.957l3.507 4.145v1.275c0 1.276 2.551 4.464 2.551 4.464M7.708 16.638h7.653M7.708 12.812h7.653M7.708 8.987h5.101">
      </path>
    </symbol>
    <symbol id="icon-decor-left" viewBox="0 0 175 38">
      <line y1="-2" x2="143" y2="-2" transform="matrix(1 -8.74228e-08 -8.74228e-08 -1 22 18)"
        stroke="url(#paint_gradient_left)" stroke-width="4" />
      <circle cx="9" cy="9" r="9" transform="matrix(-1 0 0 1 28 10)" fill="#FFDA00" />
      <circle cx="5" cy="5" r="5" transform="matrix(-1 0 0 1 41 15)" fill="#FFDA00" />
      <defs>
        <linearGradient id="paint_gradient_left" x1="143" y1="0.5" x2="19" y2="0.500011" gradientUnits="userSpaceOnUse">
          <stop stop-color="#FFFEF6" stop-opacity="0" />
          <stop offset="1" stop-color="#FFE16D" />
        </linearGradient>
      </defs>
    </symbol>
    <symbol id="icon-decor-right" viewBox="0 0 175 38">
      <line x1="153" y1="20" x2="10" y2="20" stroke="url(#paint_gradient_right)" stroke-width="4" />
      <circle cx="156" cy="19" r="9" fill="#FFDA00" />
      <circle cx="139" cy="20" r="5" fill="#FFDA00" />
      <defs>
        <linearGradient id="paint_gradient_right" x1="10" y1="17.5" x2="134" y2="17.5" gradientUnits="userSpaceOnUse">
          <stop stop-color="#FFFEF6" stop-opacity="0" />
          <stop offset="1" stop-color="#FFE16D" />
        </linearGradient>
      </defs>
    </symbol>

  </defs>
</svg>